<?xml version="1.0" encoding="utf8" standalone="no"?>
<!DOCTYPE svg PUBLIC "-//W3C//DTD SVG 20010904//EN" "http://www.w3.org/TR/2001/REC-SVG-20010904/DTD/svg10.dtd">
<svg viewBox="0 0 60 60" xmlns="http://www.w3.org/2000/svg">
<path d="m7.39838,8.17559h21.19242a2,2 0 0,1 2,2v21.19242a2,2 0 0,1 -2,2h-21.19242a2,2 0 0,1 -2-2v-21.19242a2,2 0 0,1 2-2" fill="#b3b3b3" fill-rule="evenodd" stroke="#333" stroke-linecap="round" stroke-linejoin="round" stroke-width="4.6875" transform="matrix(.800000,.000000,.000000,.800000,.719783,-1.244015)"/>
<path d="m14.75556,26.53007v19.79405h21.9534" fill="none" stroke="#333" stroke-dasharray="3.125,3.125" stroke-linecap="round" stroke-linejoin="round" stroke-width="3.125"/>
<path d="m7.39838,8.17559h21.19242a2,2 0 0,1 2,2v21.19242a2,2 0 0,1 -2,2h-21.19242a2,2 0 0,1 -2-2v-21.19242a2,2 0 0,1 2-2" fill="#666" fill-rule="evenodd" stroke="#333" stroke-linecap="round" stroke-linejoin="round" stroke-width="4.6875" transform="matrix(.800000,.000000,.000000,.800000,31.31058,28.98689)"/>
</svg>
